<svg width="315" height="44" viewBox="0 0 315 44" fill="none" xmlns="http://www.w3.org/2000/svg">
<path d="M313.5 24.9502C313.102 24.9502 312.721 24.7922 312.439 24.5109C312.158 24.2296 312 23.848 312 23.4502V20.4502C312 20.0524 312.158 19.6708 312.439 19.3895C312.721 19.1082 313.102 18.9502 313.5 18.9502C313.898 18.9502 314.279 19.1082 314.561 19.3895C314.842 19.6708 315 20.0524 315 20.4502V23.4502C315 23.848 314.842 24.2296 314.561 24.5109C314.279 24.7922 313.898 24.9502 313.5 24.9502Z" fill="white"/>
<path d="M305.5 24.9502C305.102 24.9502 304.721 24.7922 304.439 24.5109C304.158 24.2296 304 23.848 304 23.4502V20.4502C304 20.0524 304.158 19.6708 304.439 19.3895C304.721 19.1082 305.102 18.9502 305.5 18.9502C305.898 18.9502 306.279 19.1082 306.561 19.3895C306.842 19.6708 307 20.0524 307 20.4502V23.4502C307 23.848 306.842 24.2296 306.561 24.5109C306.279 24.7922 305.898 24.9502 305.5 24.9502Z" fill="white"/>
<path d="M297.5 24.9502C297.102 24.9502 296.721 24.7922 296.439 24.5109C296.158 24.2296 296 23.848 296 23.4502V20.4502C296 20.0524 296.158 19.6708 296.439 19.3895C296.721 19.1082 297.102 18.9502 297.5 18.9502C297.898 18.9502 298.279 19.1082 298.561 19.3895C298.842 19.6708 299 20.0524 299 20.4502V23.4502C299 23.848 298.842 24.2296 298.561 24.5109C298.279 24.7922 297.898 24.9502 297.5 24.9502Z" fill="white"/>
<path d="M289.5 24.9502C289.102 24.9502 288.721 24.7922 288.439 24.5109C288.158 24.2296 288 23.848 288 23.4502V20.4502C288 20.0524 288.158 19.6708 288.439 19.3895C288.721 19.1082 289.102 18.9502 289.5 18.9502C289.898 18.9502 290.279 19.1082 290.561 19.3895C290.842 19.6708 291 20.0524 291 20.4502V23.4502C291 23.848 290.842 24.2296 290.561 24.5109C290.279 24.7922 289.898 24.9502 289.5 24.9502Z" fill="white"/>
<path d="M281.5 24.9502C281.102 24.9502 280.721 24.7922 280.439 24.5109C280.158 24.2296 280 23.848 280 23.4502V20.4502C280 20.0524 280.158 19.6708 280.439 19.3895C280.721 19.1082 281.102 18.9502 281.5 18.9502C281.898 18.9502 282.279 19.1082 282.561 19.3895C282.842 19.6708 283 20.0524 283 20.4502V23.4502C283 23.848 282.842 24.2296 282.561 24.5109C282.279 24.7922 281.898 24.9502 281.5 24.9502Z" fill="white"/>
<path d="M273.5 24.9502C273.102 24.9502 272.721 24.7922 272.439 24.5109C272.158 24.2296 272 23.848 272 23.4502V20.4502C272 20.0524 272.158 19.6708 272.439 19.3895C272.721 19.1082 273.102 18.9502 273.5 18.9502C273.898 18.9502 274.279 19.1082 274.561 19.3895C274.842 19.6708 275 20.0524 275 20.4502V23.4502C275 23.848 274.842 24.2296 274.561 24.5109C274.279 24.7922 273.898 24.9502 273.5 24.9502Z" fill="white"/>
<path d="M265.5 24.9502C265.102 24.9502 264.721 24.7922 264.439 24.5109C264.158 24.2296 264 23.848 264 23.4502V20.4502C264 20.0524 264.158 19.6708 264.439 19.3895C264.721 19.1082 265.102 18.9502 265.5 18.9502C265.898 18.9502 266.279 19.1082 266.561 19.3895C266.842 19.6708 267 20.0524 267 20.4502V23.4502C267 23.848 266.842 24.2296 266.561 24.5109C266.279 24.7922 265.898 24.9502 265.5 24.9502Z" fill="white"/>
<path d="M257.5 24.9502C257.102 24.9502 256.721 24.7922 256.439 24.5109C256.158 24.2296 256 23.848 256 23.4502V20.4502C256 20.0524 256.158 19.6708 256.439 19.3895C256.721 19.1082 257.102 18.9502 257.5 18.9502C257.898 18.9502 258.279 19.1082 258.561 19.3895C258.842 19.6708 259 20.0524 259 20.4502V23.4502C259 23.848 258.842 24.2296 258.561 24.5109C258.279 24.7922 257.898 24.9502 257.5 24.9502Z" fill="white"/>
<path d="M249.5 24.9502C249.102 24.9502 248.721 24.7922 248.439 24.5109C248.158 24.2296 248 23.848 248 23.4502V20.4502C248 20.0524 248.158 19.6708 248.439 19.3895C248.721 19.1082 249.102 18.9502 249.5 18.9502C249.898 18.9502 250.279 19.1082 250.561 19.3895C250.842 19.6708 251 20.0524 251 20.4502V23.4502C251 23.848 250.842 24.2296 250.561 24.5109C250.279 24.7922 249.898 24.9502 249.5 24.9502Z" fill="white"/>
<path d="M241.5 24.9502C241.102 24.9502 240.721 24.7922 240.439 24.5109C240.158 24.2296 240 23.848 240 23.4502V20.4502C240 20.0524 240.158 19.6708 240.439 19.3895C240.721 19.1082 241.102 18.9502 241.5 18.9502C241.898 18.9502 242.279 19.1082 242.561 19.3895C242.842 19.6708 243 20.0524 243 20.4502V23.4502C243 23.848 242.842 24.2296 242.561 24.5109C242.279 24.7922 241.898 24.9502 241.5 24.9502Z" fill="white"/>
<path d="M233.5 33.4672C233.102 33.4672 232.721 33.3092 232.439 33.0279C232.158 32.7466 232 32.365 232 31.9672V12.0332C232 11.6354 232.158 11.2538 232.439 10.9725C232.721 10.6912 233.102 10.5332 233.5 10.5332C233.898 10.5332 234.279 10.6912 234.561 10.9725C234.842 11.2538 235 11.6354 235 12.0332V31.9672C235 32.365 234.842 32.7466 234.561 33.0279C234.279 33.3092 233.898 33.4672 233.5 33.4672Z" fill="white"/>
<path d="M225.5 28C225.102 28 224.721 27.842 224.439 27.5607C224.158 27.2794 224 26.8978 224 26.5V17.5C224 17.1022 224.158 16.7206 224.439 16.4393C224.721 16.158 225.102 16 225.5 16C225.898 16 226.279 16.158 226.561 16.4393C226.842 16.7206 227 17.1022 227 17.5V26.5C227 26.8978 226.842 27.2794 226.561 27.5607C226.279 27.842 225.898 28 225.5 28Z" fill="white"/>
<path d="M217.5 33.4672C217.102 33.4672 216.721 33.3092 216.439 33.0279C216.158 32.7466 216 32.365 216 31.9672V12.0332C216 11.6354 216.158 11.2538 216.439 10.9725C216.721 10.6912 217.102 10.5332 217.5 10.5332C217.898 10.5332 218.279 10.6912 218.561 10.9725C218.842 11.2538 219 11.6354 219 12.0332V31.9672C219 32.365 218.842 32.7466 218.561 33.0279C218.279 33.3092 217.898 33.4672 217.5 33.4672Z" fill="white"/>
<path d="M209.5 40C209.102 40 208.721 39.842 208.439 39.5607C208.158 39.2794 208 38.8978 208 38.5V5.5C208 5.10218 208.158 4.72064 208.439 4.43934C208.721 4.15804 209.102 4 209.5 4C209.898 4 210.279 4.15804 210.561 4.43934C210.842 4.72064 211 5.10218 211 5.5V38.5C211 38.8978 210.842 39.2794 210.561 39.5607C210.279 39.842 209.898 40 209.5 40Z" fill="white"/>
<path d="M201.5 33.4672C201.102 33.4672 200.721 33.3092 200.439 33.0279C200.158 32.7466 200 32.365 200 31.9672V12.0332C200 11.6354 200.158 11.2538 200.439 10.9725C200.721 10.6912 201.102 10.5332 201.5 10.5332C201.898 10.5332 202.279 10.6912 202.561 10.9725C202.842 11.2538 203 11.6354 203 12.0332V31.9672C203 32.365 202.842 32.7466 202.561 33.0279C202.279 33.3092 201.898 33.4672 201.5 33.4672Z" fill="white"/>
<path d="M193.5 24.9502C193.102 24.9502 192.721 24.7922 192.439 24.5109C192.158 24.2296 192 23.848 192 23.4502V20.4502C192 20.0524 192.158 19.6708 192.439 19.3895C192.721 19.1082 193.102 18.9502 193.5 18.9502C193.898 18.9502 194.279 19.1082 194.561 19.3895C194.842 19.6708 195 20.0524 195 20.4502V23.4502C195 23.848 194.842 24.2296 194.561 24.5109C194.279 24.7922 193.898 24.9502 193.5 24.9502Z" fill="white"/>
<path d="M185.5 33.4672C185.102 33.4672 184.721 33.3092 184.439 33.0279C184.158 32.7466 184 32.365 184 31.9672V12.0332C184 11.6354 184.158 11.2538 184.439 10.9725C184.721 10.6912 185.102 10.5332 185.5 10.5332C185.898 10.5332 186.279 10.6912 186.561 10.9725C186.842 11.2538 187 11.6354 187 12.0332V31.9672C187 32.365 186.842 32.7466 186.561 33.0279C186.279 33.3092 185.898 33.4672 185.5 33.4672Z" fill="white"/>
<path d="M177.5 39C177.102 39 176.721 38.842 176.439 38.5607C176.158 38.2794 176 37.8978 176 37.5V6.5C176 6.10218 176.158 5.72064 176.439 5.43934C176.721 5.15804 177.102 5 177.5 5C177.898 5 178.279 5.15804 178.561 5.43934C178.842 5.72064 179 6.10218 179 6.5V37.5C179 37.8978 178.842 38.2794 178.561 38.5607C178.279 38.842 177.898 39 177.5 39Z" fill="white"/>
<path d="M169.5 33.4672C169.102 33.4672 168.721 33.3092 168.439 33.0279C168.158 32.7466 168 32.365 168 31.9672V12.0332C168 11.6354 168.158 11.2538 168.439 10.9725C168.721 10.6912 169.102 10.5332 169.5 10.5332C169.898 10.5332 170.279 10.6912 170.561 10.9725C170.842 11.2538 171 11.6354 171 12.0332V31.9672C171 32.365 170.842 32.7466 170.561 33.0279C170.279 33.3092 169.898 33.4672 169.5 33.4672Z" fill="white"/>
<path d="M161.5 44C161.102 44 160.721 43.842 160.439 43.5607C160.158 43.2794 160 42.8978 160 42.5V1.5C160 1.10218 160.158 0.720644 160.439 0.43934C160.721 0.158035 161.102 0 161.5 0C161.898 0 162.279 0.158035 162.561 0.43934C162.842 0.720644 163 1.10218 163 1.5V42.5C163 42.8978 162.842 43.2794 162.561 43.5607C162.279 43.842 161.898 44 161.5 44Z" fill="white"/>
<path d="M153.5 33.4672C153.102 33.4672 152.721 33.3092 152.439 33.0279C152.158 32.7466 152 32.365 152 31.9672V12.0332C152 11.6354 152.158 11.2538 152.439 10.9725C152.721 10.6912 153.102 10.5332 153.5 10.5332C153.898 10.5332 154.279 10.6912 154.561 10.9725C154.842 11.2538 155 11.6354 155 12.0332V31.9672C155 32.365 154.842 32.7466 154.561 33.0279C154.279 33.3092 153.898 33.4672 153.5 33.4672Z" fill="white"/>
<path d="M145.5 24.9502C145.102 24.9502 144.721 24.7922 144.439 24.5109C144.158 24.2296 144 23.848 144 23.4502V20.4502C144 20.0524 144.158 19.6708 144.439 19.3895C144.721 19.1082 145.102 18.9502 145.5 18.9502C145.898 18.9502 146.279 19.1082 146.561 19.3895C146.842 19.6708 147 20.0524 147 20.4502V23.4502C147 23.848 146.842 24.2296 146.561 24.5109C146.279 24.7922 145.898 24.9502 145.5 24.9502Z" fill="white"/>
<path d="M137.5 33C137.102 33 136.721 32.842 136.439 32.5607C136.158 32.2794 136 31.8978 136 31.5V12.5C136 12.1022 136.158 11.7206 136.439 11.4393C136.721 11.158 137.102 11 137.5 11C137.898 11 138.279 11.158 138.561 11.4393C138.842 11.7206 139 12.1022 139 12.5V31.5C139 31.8978 138.842 32.2794 138.561 32.5607C138.279 32.842 137.898 33 137.5 33Z" fill="white"/>
<path d="M129.5 28C129.102 28 128.721 27.842 128.439 27.5607C128.158 27.2794 128 26.8978 128 26.5V17.5C128 17.1022 128.158 16.7206 128.439 16.4393C128.721 16.158 129.102 16 129.5 16C129.898 16 130.279 16.158 130.561 16.4393C130.842 16.7206 131 17.1022 131 17.5V26.5C131 26.8978 130.842 27.2794 130.561 27.5607C130.279 27.842 129.898 28 129.5 28Z" fill="white"/>
<path d="M121.5 33C121.102 33 120.721 32.842 120.439 32.5607C120.158 32.2794 120 31.8978 120 31.5V12.5C120 12.1022 120.158 11.7206 120.439 11.4393C120.721 11.158 121.102 11 121.5 11C121.898 11 122.279 11.158 122.561 11.4393C122.842 11.7206 123 12.1022 123 12.5V31.5C123 31.8978 122.842 32.2794 122.561 32.5607C122.279 32.842 121.898 33 121.5 33Z" fill="white"/>
<path d="M113.5 43C113.102 43 112.721 42.842 112.439 42.5607C112.158 42.2794 112 41.8978 112 41.5V2.5C112 2.10218 112.158 1.72064 112.439 1.43934C112.721 1.15804 113.102 1 113.5 1C113.898 1 114.279 1.15804 114.561 1.43934C114.842 1.72064 115 2.10218 115 2.5V41.5C115 41.8978 114.842 42.2794 114.561 42.5607C114.279 42.842 113.898 43 113.5 43Z" fill="white"/>
<path d="M105.5 33C105.102 33 104.721 32.842 104.439 32.5607C104.158 32.2794 104 31.8978 104 31.5V12.5C104 12.1022 104.158 11.7206 104.439 11.4393C104.721 11.158 105.102 11 105.5 11C105.898 11 106.279 11.158 106.561 11.4393C106.842 11.7206 107 12.1022 107 12.5V31.5C107 31.8978 106.842 32.2794 106.561 32.5607C106.279 32.842 105.898 33 105.5 33Z" fill="white"/>
<path d="M97.5 31C97.1022 31 96.7206 30.842 96.4393 30.5607C96.158 30.2794 96 29.8978 96 29.5V14.5C96 14.1022 96.158 13.7206 96.4393 13.4393C96.7206 13.158 97.1022 13 97.5 13C97.8978 13 98.2794 13.158 98.5607 13.4393C98.842 13.7206 99 14.1022 99 14.5V29.5C99 29.8978 98.842 30.2794 98.5607 30.5607C98.2794 30.842 97.8978 31 97.5 31Z" fill="white"/>
<path d="M89.5 25C89.1022 25 88.7206 24.842 88.4393 24.5607C88.158 24.2794 88 23.8978 88 23.5V20.5C88 20.1022 88.158 19.7206 88.4393 19.4393C88.7206 19.158 89.1022 19 89.5 19C89.8978 19 90.2794 19.158 90.5607 19.4393C90.842 19.7206 91 20.1022 91 20.5V23.5C91 23.8978 90.842 24.2794 90.5607 24.5607C90.2794 24.842 89.8978 25 89.5 25Z" fill="white"/>
<path d="M81.5 28.3062C81.1022 28.3062 80.7206 28.1481 80.4393 27.8668C80.158 27.5855 80 27.204 80 26.8062V17.3062C80 16.9083 80.158 16.5268 80.4393 16.2455C80.7206 15.9642 81.1022 15.8062 81.5 15.8062C81.8978 15.8062 82.2794 15.9642 82.5607 16.2455C82.842 16.5268 83 16.9083 83 17.3062V26.8062C83 27.204 82.842 27.5855 82.5607 27.8668C82.2794 28.1481 81.8978 28.3062 81.5 28.3062Z" fill="white"/>
<path d="M73.5 33C73.1022 33 72.7206 32.842 72.4393 32.5607C72.158 32.2794 72 31.8978 72 31.5V12.5C72 12.1022 72.158 11.7206 72.4393 11.4393C72.7206 11.158 73.1022 11 73.5 11C73.8978 11 74.2794 11.158 74.5607 11.4393C74.842 11.7206 75 12.1022 75 12.5V31.5C75 31.8978 74.842 32.2794 74.5607 32.5607C74.2794 32.842 73.8978 33 73.5 33Z" fill="white"/>
<path d="M65.5 28.1479C65.1022 28.1479 64.7206 27.9899 64.4393 27.7086C64.158 27.4273 64 27.0458 64 26.6479V17.1479C64 16.7501 64.158 16.3686 64.4393 16.0873C64.7206 15.806 65.1022 15.6479 65.5 15.6479C65.8978 15.6479 66.2794 15.806 66.5607 16.0873C66.842 16.3686 67 16.7501 67 17.1479V26.6479C67 27.0458 66.842 27.4273 66.5607 27.7086C66.2794 27.9899 65.8978 28.1479 65.5 28.1479Z" fill="white"/>
<path d="M57.5 24.9502C57.1022 24.9502 56.7206 24.7922 56.4393 24.5109C56.158 24.2296 56 23.848 56 23.4502V20.4502C56 20.0524 56.158 19.6708 56.4393 19.3895C56.7206 19.1082 57.1022 18.9502 57.5 18.9502C57.8978 18.9502 58.2794 19.1082 58.5607 19.3895C58.842 19.6708 59 20.0524 59 20.4502V23.4502C59 23.848 58.842 24.2296 58.5607 24.5109C58.2794 24.7922 57.8978 24.9502 57.5 24.9502Z" fill="white"/>
<path d="M49.5 24.9502C49.1022 24.9502 48.7206 24.7922 48.4393 24.5109C48.158 24.2296 48 23.848 48 23.4502V20.4502C48 20.0524 48.158 19.6708 48.4393 19.3895C48.7206 19.1082 49.1022 18.9502 49.5 18.9502C49.8978 18.9502 50.2794 19.1082 50.5607 19.3895C50.842 19.6708 51 20.0524 51 20.4502V23.4502C51 23.848 50.842 24.2296 50.5607 24.5109C50.2794 24.7922 49.8978 24.9502 49.5 24.9502Z" fill="white"/>
<path d="M41.5 24.9502C41.1022 24.9502 40.7206 24.7922 40.4393 24.5109C40.158 24.2296 40 23.848 40 23.4502V20.4502C40 20.0524 40.158 19.6708 40.4393 19.3895C40.7206 19.1082 41.1022 18.9502 41.5 18.9502C41.8978 18.9502 42.2794 19.1082 42.5607 19.3895C42.842 19.6708 43 20.0524 43 20.4502V23.4502C43 23.848 42.842 24.2296 42.5607 24.5109C42.2794 24.7922 41.8978 24.9502 41.5 24.9502Z" fill="white"/>
<path d="M33.5 24.9502C33.1022 24.9502 32.7206 24.7922 32.4393 24.5109C32.158 24.2296 32 23.848 32 23.4502V20.4502C32 20.0524 32.158 19.6708 32.4393 19.3895C32.7206 19.1082 33.1022 18.9502 33.5 18.9502C33.8978 18.9502 34.2794 19.1082 34.5607 19.3895C34.842 19.6708 35 20.0524 35 20.4502V23.4502C35 23.848 34.842 24.2296 34.5607 24.5109C34.2794 24.7922 33.8978 24.9502 33.5 24.9502Z" fill="white"/>
<path d="M25.5 24.9502C25.1022 24.9502 24.7206 24.7922 24.4393 24.5109C24.158 24.2296 24 23.848 24 23.4502V20.4502C24 20.0524 24.158 19.6708 24.4393 19.3895C24.7206 19.1082 25.1022 18.9502 25.5 18.9502C25.8978 18.9502 26.2794 19.1082 26.5607 19.3895C26.842 19.6708 27 20.0524 27 20.4502V23.4502C27 23.848 26.842 24.2296 26.5607 24.5109C26.2794 24.7922 25.8978 24.9502 25.5 24.9502Z" fill="white"/>
<path d="M17.5 24.9502C17.1022 24.9502 16.7206 24.7922 16.4393 24.5109C16.158 24.2296 16 23.848 16 23.4502V20.4502C16 20.0524 16.158 19.6708 16.4393 19.3895C16.7206 19.1082 17.1022 18.9502 17.5 18.9502C17.8978 18.9502 18.2794 19.1082 18.5607 19.3895C18.842 19.6708 19 20.0524 19 20.4502V23.4502C19 23.848 18.842 24.2296 18.5607 24.5109C18.2794 24.7922 17.8978 24.9502 17.5 24.9502Z" fill="white"/>
<path d="M9.5 24.9502C9.10218 24.9502 8.72064 24.7922 8.43934 24.5109C8.15804 24.2296 8 23.848 8 23.4502V20.4502C8 20.0524 8.15804 19.6708 8.43934 19.3895C8.72064 19.1082 9.10218 18.9502 9.5 18.9502C9.89782 18.9502 10.2794 19.1082 10.5607 19.3895C10.842 19.6708 11 20.0524 11 20.4502V23.4502C11 23.848 10.842 24.2296 10.5607 24.5109C10.2794 24.7922 9.89782 24.9502 9.5 24.9502Z" fill="white"/>
<path d="M1.5 24.9502C1.10218 24.9502 0.720644 24.7922 0.43934 24.5109C0.158035 24.2296 0 23.848 0 23.4502V20.4502C0 20.0524 0.158035 19.6708 0.43934 19.3895C0.720644 19.1082 1.10218 18.9502 1.5 18.9502C1.89782 18.9502 2.27936 19.1082 2.56066 19.3895C2.84196 19.6708 3 20.0524 3 20.4502V23.4502C3 23.848 2.84196 24.2296 2.56066 24.5109C2.27936 24.7922 1.89782 24.9502 1.5 24.9502Z" fill="white"/>
</svg>
