<svg width="18" height="25" viewBox="0 0 18 25" fill="none" xmlns="http://www.w3.org/2000/svg">
<path d="M8.99625 15.8825C10.2983 15.8825 11.547 15.3653 12.4677 14.4446C13.3883 13.5239 13.9056 12.2752 13.9056 10.9732V4.90931C13.9056 3.60728 13.3883 2.35858 12.4677 1.4379C11.547 0.517229 10.2983 0 8.99625 0C7.69514 0.00140236 6.4478 0.519251 5.52827 1.43977C4.60874 2.36029 4.09223 3.6082 4.09223 4.90931V10.9742C4.09251 12.2752 4.60914 13.5228 5.52864 14.4431C6.44814 15.3634 7.69532 15.8811 8.99625 15.8825ZM17.1777 8.75929H16.3597C16.1427 8.75929 15.9347 8.84548 15.7812 8.99889C15.6278 9.1523 15.5416 9.36037 15.5416 9.57733V10.9732C15.5407 11.8873 15.3486 12.7912 14.9775 13.6266C14.6064 14.4621 14.0646 15.2106 13.387 15.8242C12.7093 16.4377 11.9108 16.9027 11.0427 17.1893C10.1746 17.4758 9.25622 17.5775 8.34647 17.4879C6.69893 17.2781 5.18673 16.4677 4.09962 15.2121C3.01251 13.9564 2.42693 12.3438 2.45509 10.6832V9.57733C2.45509 9.36037 2.36891 9.1523 2.21549 8.99889C2.06208 8.84548 1.85401 8.75929 1.63705 8.75929H0.819009C0.602051 8.75929 0.393979 8.84548 0.240566 8.99889C0.0871536 9.1523 0.000967289 9.36037 0.000967289 9.57733V10.5721C-0.0311139 12.7949 0.735745 14.9555 2.16205 16.6607C3.58836 18.3659 5.57936 19.5025 7.77289 19.8637V21.6098H4.91028C4.69332 21.6098 4.48525 21.696 4.33183 21.8494C4.17842 22.0029 4.09223 22.2109 4.09223 22.4279V23.2459C4.09223 23.4629 4.17842 23.671 4.33183 23.8244C4.48525 23.9778 4.69332 24.064 4.91028 24.064H13.0918C13.3087 24.064 13.5168 23.9778 13.6702 23.8244C13.8236 23.671 13.9098 23.4629 13.9098 23.2459V22.4279C13.9098 22.2109 13.8236 22.0029 13.6702 21.8494C13.5168 21.696 13.3087 21.6098 13.0918 21.6098H10.2281V19.8828C12.3802 19.5846 14.352 18.5187 15.7803 16.8814C17.2085 15.2442 17.9968 13.1459 18 10.9732V9.57733C18 9.36037 17.9138 9.1523 17.7604 8.99889C17.607 8.84548 17.3989 8.75929 17.182 8.75929H17.1777Z" fill="white"/>
</svg>
